<!DOCTYPE svg PUBLIC "-//W3C//DTD SVG 20010904//EN" "http://www.w3.org/TR/2001/REC-SVG-20010904/DTD/svg10.dtd">
<svg version="1.0" xmlns="http://www.w3.org/2000/svg" width="1042px" height="1042px" viewBox="0 0 10420 10420" preserveAspectRatio="xMidYMid meet">
<g id="layer101" fill="#202020" stroke="none">
 <path d="M0 5210 l0 -5210 5210 0 5210 0 0 5210 0 5210 -5210 0 -5210 0 0 -5210z"/>
 </g>
<g id="layer102" fill="#45443a" stroke="none">
 <path d="M0 5210 l0 -5210 5210 0 5210 0 0 5210 0 5210 -5210 0 -5210 0 0 -5210z m997 1404 c37 -8 94 -24 127 -35 39 -13 78 -19 120 -17 55 3 61 5 64 26 3 20 7 21 45 16 59 -9 85 -28 89 -65 3 -31 8 -37 58 -57 14 -5 41 -17 60 -25 19 -9 64 -21 100 -27 36 -7 84 -19 108 -27 34 -12 46 -12 58 -3 11 10 18 10 32 -2 23 -21 76 -44 145 -63 35 -10 57 -22 57 -31 0 -17 16 -19 23 -1 4 8 6 7 6 -3 1 -9 12 -16 31 -17 64 -5 229 -100 214 -124 -3 -5 11 -15 31 -23 53 -23 132 -112 166 -192 17 -38 37 -82 44 -99 33 -72 38 -128 19 -186 -12 -37 -78 -131 -96 -138 -5 -2 -13 -14 -18 -27 -11 -27 -47 -39 -189 -63 -74 -13 -95 -20 -97 -34 -1 -10 4 -17 14 -17 12 0 13 -3 5 -8 -8 -5 0 -14 25 -27 20 -11 71 -43 113 -72 42 -29 79 -53 83 -53 7 0 28 -19 94 -83 41 -40 94 -128 115 -192 5 -16 11 -61 12 -100 3 -60 -1 -79 -26 -132 -30 -63 -68 -103 -98 -103 -10 0 -22 -5 -28 -11 -12 -12 -136 -14 -223 -4 -30 3 -68 8 -85 10 -16 2 -57 6 -90 10 -33 3 -85 13 -115 21 -30 9 -77 22 -105 29 -27 8 -75 21 -105 29 -30 9 -94 22 -143 31 -86 15 -127 31 -127 49 0 5 -7 17 -16 27 -33 37 -52 174 -34 249 l12 50 76 0 c116 0 122 3 122 59 0 44 -82 321 -103 348 -5 7 -25 15 -46 18 -20 3 -51 8 -68 11 -28 4 -34 11 -43 44 -14 51 -10 149 7 176 7 11 24 26 38 32 22 10 24 16 20 53 -3 23 -10 49 -15 58 -5 10 -16 47 -24 84 -18 76 -51 135 -91 161 -22 14 -47 18 -122 17 -113 0 -177 22 -194 67 -6 15 -15 34 -20 42 -30 51 -50 107 -70 195 -12 55 -26 108 -31 118 -6 12 -5 23 3 33 14 17 4 17 86 -2z m1773 -384 c25 -6 72 -15 104 -21 64 -11 107 -28 73 -29 -10 0 -37 5 -61 11 -23 6 -60 9 -82 7 l-39 -3 25 -14 c23 -14 115 -39 219 -62 25 -5 54 -15 65 -22 47 -30 181 -63 191 -48 3 6 16 11 28 11 21 1 21 1 -3 15 -14 8 -33 14 -43 15 -20 0 -90 30 -84 36 1 2 35 -5 75 -15 57 -15 80 -17 112 -9 55 14 95 -2 86 -35 -3 -12 4 -49 16 -81 25 -72 27 -120 8 -163 -16 -36 -39 -41 -115 -23 -28 6 -47 5 -65 -3 -21 -11 -25 -19 -26 -61 -1 -27 2 -60 7 -75 4 -14 13 -44 20 -66 7 -22 18 -69 25 -105 7 -36 17 -85 24 -110 6 -25 13 -72 16 -105 2 -33 6 -73 8 -90 3 -16 7 -48 11 -70 22 -159 20 -147 35 -230 7 -38 14 -79 15 -90 1 -11 3 -23 4 -27 0 -3 12 -20 26 -36 24 -29 105 -66 194 -88 30 -8 34 -13 38 -48 2 -21 -2 -44 -8 -52 -7 -8 -13 -31 -15 -51 -8 -101 -126 -118 -299 -44 -11 5 -42 17 -70 27 -44 15 -76 29 -211 90 -20 9 -34 24 -39 41 -4 16 -16 37 -28 48 -19 18 -19 20 -4 23 25 5 21 18 -13 42 -40 28 -40 90 0 88 8 -1 41 0 72 0 82 3 91 16 84 111 -3 42 -8 121 -12 176 -3 55 -12 125 -19 155 -7 30 -16 78 -20 105 -9 65 -31 143 -48 169 -8 12 -17 41 -21 66 -13 86 -17 115 -21 150 -8 60 -28 134 -41 150 -13 15 -60 40 -139 74 -85 37 -146 88 -176 148 -35 69 -36 91 -6 111 25 18 63 20 127 7z m1374 -45 c35 -8 88 -27 116 -41 28 -14 67 -28 88 -31 54 -8 130 -45 190 -95 60 -48 142 -152 142 -179 0 -10 4 -20 9 -23 4 -3 16 -37 25 -76 21 -85 15 -131 -26 -215 -40 -82 -46 -91 -103 -149 -44 -45 -76 -70 -160 -124 -21 -13 -70 -37 -95 -46 -8 -3 -33 -17 -55 -31 -22 -14 -60 -35 -85 -46 -111 -53 -180 -130 -180 -201 0 -28 8 -39 40 -65 22 -17 62 -36 88 -43 26 -6 56 -16 67 -21 66 -30 349 -44 465 -23 55 10 109 7 125 -6 9 -7 30 -20 48 -30 44 -23 106 -145 109 -215 1 -27 7 -66 14 -85 6 -19 14 -58 18 -87 6 -51 6 -51 -32 -74 -35 -23 -45 -24 -227 -24 -226 1 -310 13 -450 65 -76 29 -227 110 -271 147 -140 115 -208 204 -278 361 -17 40 -11 163 10 198 99 162 118 176 519 372 145 72 183 95 217 131 39 42 80 127 73 151 -6 20 -93 110 -106 110 -5 0 -28 12 -52 27 -23 15 -58 36 -77 45 -19 10 -46 25 -60 32 -69 39 -163 61 -213 52 l-37 -7 0 -75 c0 -67 5 -87 32 -134 4 -8 14 -26 21 -40 7 -14 20 -37 30 -51 15 -22 16 -31 6 -52 -10 -21 -18 -25 -48 -23 -29 2 -39 8 -56 37 -19 34 -30 48 -66 88 -8 10 -19 24 -22 32 -4 8 -16 28 -27 44 -30 45 -70 128 -70 146 0 9 -3 19 -7 22 -13 13 -14 88 -2 125 22 70 72 105 179 128 77 16 100 16 174 -1z m1327 -165 c77 -7 99 -14 99 -30 0 -5 20 -39 45 -76 25 -37 48 -79 52 -93 3 -14 9 -31 14 -37 5 -5 16 -37 24 -70 9 -32 21 -72 25 -89 5 -16 16 -59 26 -95 38 -146 46 -176 56 -197 14 -29 2 -111 -19 -135 -30 -33 -149 -13 -241 41 -62 36 -69 50 -53 103 17 59 18 57 -8 193 -27 146 -95 242 -142 199 -33 -30 -53 -83 -88 -234 -17 -73 -19 -110 -15 -260 7 -268 11 -328 30 -415 22 -105 95 -324 125 -372 12 -21 35 -67 51 -102 15 -35 35 -72 45 -83 25 -28 72 -51 89 -44 25 10 42 67 43 146 0 41 3 120 5 175 14 304 18 360 22 364 11 12 123 18 164 9 45 -9 95 -46 123 -90 26 -41 49 -168 41 -228 -9 -76 -11 -87 -24 -155 -13 -67 -66 -211 -81 -220 -5 -4 -15 -21 -23 -38 -17 -42 -92 -120 -140 -146 -21 -12 -63 -24 -94 -27 -50 -6 -67 -2 -135 27 -76 33 -79 35 -137 122 -33 48 -60 90 -60 93 0 3 -10 20 -23 37 -30 44 -45 67 -63 102 -9 17 -28 53 -44 80 -42 72 -85 164 -99 210 -7 22 -17 49 -22 60 -17 37 -89 258 -85 263 2 2 7 -6 11 -17 3 -12 10 -21 15 -21 4 0 4 12 -1 28 -19 60 -70 273 -74 312 -1 8 -5 29 -8 45 -4 17 -9 66 -13 110 -3 44 -8 83 -10 86 -7 11 16 162 29 199 12 31 25 61 61 139 15 33 104 100 160 122 33 12 63 16 99 12 29 -2 63 0 77 6 14 6 41 8 60 5 19 -3 69 -9 111 -14z m1207 -114 c15 -7 43 -21 62 -29 104 -48 163 -100 255 -226 14 -19 29 -37 34 -40 5 -3 29 -44 54 -91 43 -80 90 -223 101 -300 2 -19 10 -62 16 -95 7 -33 14 -98 15 -145 10 -260 17 -357 29 -408 17 -73 12 -213 -9 -277 -38 -119 -103 -241 -145 -278 -129 -111 -128 -110 -202 -104 -91 8 -152 25 -193 53 -20 13 -38 24 -40 24 -4 0 -81 68 -123 108 -12 12 -34 22 -48 22 -33 0 -94 29 -102 48 -3 8 -20 36 -38 63 -18 27 -35 62 -39 79 -4 17 -13 43 -21 58 -8 15 -14 32 -14 38 0 5 -9 29 -20 51 -11 22 -24 58 -29 79 -10 38 -29 112 -70 264 -11 41 -29 105 -40 142 -11 37 -23 91 -27 120 -11 79 -8 253 6 333 6 39 14 85 17 103 3 18 9 35 14 38 5 3 9 12 9 20 0 18 23 69 47 105 10 14 30 43 44 65 32 47 47 61 119 109 89 60 111 68 190 75 118 11 120 11 148 -4z m862 -76 c20 -11 26 -33 35 -124 3 -33 10 -67 15 -77 6 -10 10 -26 10 -36 1 -10 9 -36 20 -58 11 -22 19 -45 20 -52 0 -6 7 -24 15 -40 8 -15 26 -55 41 -88 15 -33 40 -89 57 -125 28 -60 38 -83 65 -150 5 -14 21 -47 36 -75 14 -27 50 -97 79 -155 95 -188 113 -202 103 -84 -4 43 -9 80 -11 84 -3 4 -7 25 -10 46 -3 22 -8 53 -11 69 -3 17 -6 39 -8 50 -2 11 -6 31 -10 45 -3 14 -10 74 -15 133 -8 91 -13 115 -35 145 -31 46 -90 171 -83 178 10 10 113 34 148 34 58 0 121 -27 160 -69 20 -21 39 -46 42 -55 4 -9 12 -16 19 -15 29 3 39 -3 71 -53 46 -69 227 -443 243 -498 3 -14 26 -47 49 -75 23 -27 45 -60 49 -73 4 -12 18 -34 32 -47 13 -13 24 -29 24 -34 0 -6 14 -30 30 -54 17 -25 30 -49 30 -54 0 -17 38 -45 51 -38 8 6 10 29 6 81 -4 44 -3 75 3 79 6 3 10 1 10 -5 0 -6 5 -8 11 -4 6 4 8 20 5 38 -3 17 -8 63 -11 101 -9 119 -26 219 -40 235 -7 8 -15 40 -19 70 -4 30 -9 66 -11 80 -2 14 -6 68 -9 120 -5 99 -16 211 -21 220 -7 13 16 50 31 50 10 0 25 7 33 15 14 12 24 12 65 2 44 -12 50 -17 82 -74 l34 -62 -3 -118 c-2 -65 0 -127 4 -138 4 -12 10 -55 13 -97 4 -59 3 -78 -9 -88 -13 -10 -12 -17 4 -48 10 -21 18 -63 19 -96 2 -33 7 -65 12 -72 6 -6 10 -36 9 -65 -2 -70 5 -130 18 -154 6 -11 11 -90 12 -175 2 -159 15 -251 51 -356 31 -88 22 -114 -62 -179 -90 -71 -106 -71 -197 1 -39 30 -71 58 -71 62 0 4 -15 24 -33 44 -41 49 -97 123 -97 131 0 3 -13 26 -30 50 -16 25 -30 48 -30 53 0 4 -11 22 -25 40 -14 18 -25 36 -25 39 0 4 -11 20 -25 37 -14 16 -25 38 -25 47 0 10 -8 29 -18 42 -10 13 -24 37 -32 53 -8 17 -36 53 -62 80 -37 39 -50 48 -57 37 -4 -7 -7 -21 -5 -30 2 -9 18 -77 35 -151 35 -152 48 -293 28 -306 -22 -13 -207 -14 -232 0 -56 30 -72 47 -123 128 -30 48 -54 90 -54 94 0 3 -13 24 -28 47 -36 54 -49 76 -65 107 -23 48 -77 122 -102 142 -54 43 -70 -2 -51 -143 17 -129 12 -174 -25 -200 -17 -11 -36 -19 -43 -16 -14 5 -16 14 -36 121 -6 32 -15 66 -20 76 -5 10 -12 51 -15 91 -5 73 -9 109 -21 199 -8 60 -10 79 -18 120 -3 19 -8 53 -11 75 -17 145 -38 247 -75 370 -5 17 -12 62 -15 100 -12 137 -31 232 -64 328 l-20 58 22 9 c12 5 39 11 59 15 20 3 47 14 60 25 27 23 25 22 48 10z"/>
 <path d="M1946 6316 c21 -15 30 -14 19 3 -3 6 -14 11 -23 11 -13 0 -13 -2 4 -14z"/>
 <path d="M2125 6250 c3 -5 8 -10 11 -10 2 0 4 5 4 10 0 6 -5 10 -11 10 -5 0 -7 -4 -4 -10z"/>
 <path d="M1581 6121 c-31 -20 -6 -163 51 -293 20 -44 26 -50 92 -77 128 -52 291 -90 401 -91 44 -1 106 -5 137 -9 48 -6 63 -4 88 12 16 10 32 28 36 40 3 12 14 31 24 42 10 11 21 45 25 77 l7 57 -48 21 c-27 12 -57 26 -66 31 -10 5 -23 9 -29 9 -6 0 -27 7 -47 16 -21 9 -46 19 -57 24 -11 4 -33 13 -50 20 -16 7 -39 16 -50 21 -21 8 -98 31 -125 36 -8 1 -26 5 -40 8 -14 3 -56 12 -95 19 -38 8 -106 21 -150 30 -93 19 -86 18 -104 7z"/>
 <path d="M2475 5812 c-17 -12 -34 -73 -26 -94 11 -29 27 -4 36 55 8 49 7 52 -10 39z"/>
 <path d="M1740 5426 c-19 -51 58 -277 127 -371 28 -38 38 -43 129 -68 54 -15 115 -30 134 -33 19 -3 49 -12 66 -19 16 -8 44 -12 62 -10 18 2 52 -2 76 -9 58 -18 118 -12 170 17 36 20 41 27 39 57 -1 21 -9 41 -21 50 -11 8 -43 33 -71 55 -74 58 -98 70 -536 285 -22 11 -45 20 -51 20 -5 0 -25 11 -44 25 -43 31 -68 32 -80 1z"/>
 <path d="M2210 4640 c-35 -11 -23 -13 147 -24 66 -4 104 -3 108 4 3 5 -2 10 -12 11 -73 2 -181 10 -198 13 -11 2 -31 0 -45 -4z"/>
 <path d="M3100 4730 c0 -5 7 -10 16 -10 8 0 12 5 9 10 -3 6 -10 10 -16 10 -5 0 -9 -4 -9 -10z"/>
 <path d="M3422 4648 c6 -19 46 -37 69 -31 19 5 19 6 2 18 -29 20 -76 28 -71 13z"/>
 <path d="M6504 5715 c-17 -8 -35 -20 -41 -27 -13 -17 -45 -104 -74 -201 -12 -43 -27 -80 -31 -83 -4 -3 -8 -18 -8 -33 0 -15 -4 -31 -9 -36 -30 -34 -40 -145 -25 -294 l7 -63 59 6 c33 4 70 11 81 15 12 5 36 6 53 4 27 -4 33 -11 44 -46 7 -23 25 -80 42 -127 16 -47 38 -114 48 -150 18 -61 49 -134 123 -287 25 -53 37 -66 76 -85 85 -41 129 -25 168 62 22 50 22 366 -1 520 -16 106 -56 262 -88 340 -24 56 -41 96 -50 110 -4 8 -16 31 -25 50 -19 39 -69 117 -90 140 -54 62 -73 85 -73 90 0 12 -145 114 -154 109 0 0 -15 -7 -32 -14z"/>
 <path d="M7950 5401 c0 -6 4 -13 10 -16 6 -3 7 1 4 9 -7 18 -14 21 -14 7z"/>
 <path d="M8285 4790 c7 -31 45 -105 45 -87 0 5 -7 31 -16 58 -19 58 -40 79 -29 29z"/>
 <path d="M8350 4643 c0 -5 14 -24 30 -43 34 -40 41 -24 8 20 -21 29 -38 39 -38 23z"/>
 <path d="M8830 4596 c0 -9 5 -16 10 -16 6 0 10 4 10 9 0 6 -4 13 -10 16 -5 3 -10 -1 -10 -9z"/>
 <path d="M8490 4426 c0 -3 17 -36 37 -73 20 -38 45 -85 57 -105 11 -21 23 -38 28 -38 6 0 -46 115 -91 199 -7 15 -31 27 -31 17z"/>
 </g>
<g id="layer103" fill="#71b8c9" stroke="none">
 <path d="M0 5210 l0 -5210 5210 0 5210 0 0 5210 0 5210 -5210 0 -5210 0 0 -5210z m4621 1948 l1 -73 22 70 c31 98 48 98 79 -2 l25 -78 1 78 c1 75 2 77 26 77 l25 0 0 -130 0 -130 -34 0 -33 0 -24 91 -23 91 -12 -35 c-7 -18 -18 -59 -25 -90 -12 -55 -13 -57 -46 -57 l-33 0 0 130 0 130 25 0 c24 0 25 -2 26 -72z m296 41 c10 -26 16 -30 44 -27 26 2 35 9 39 28 4 18 13 26 33 28 15 2 27 0 27 -5 0 -4 -17 -62 -38 -128 -34 -108 -40 -120 -63 -123 -23 -3 -26 4 -62 117 -20 66 -37 125 -37 131 0 5 10 10 23 10 16 0 26 -9 34 -31z m253 -6 c0 -67 15 -72 44 -15 21 42 31 52 51 52 33 0 32 -11 -10 -85 l-34 -62 34 -51 c19 -28 35 -54 35 -57 0 -3 -13 -5 -28 -5 -24 0 -33 8 -58 53 l-29 52 -3 -52 c-3 -49 -5 -53 -28 -53 l-24 0 0 130 0 130 25 0 c22 0 25 -4 25 -37z m320 14 c0 -21 -5 -23 -42 -23 -41 1 -43 0 -46 -31 -3 -32 -2 -33 37 -33 37 0 41 -2 41 -25 0 -22 -4 -25 -40 -25 -38 0 -40 -2 -40 -30 0 -29 2 -30 45 -30 38 0 45 -3 45 -20 0 -18 -7 -20 -70 -20 l-70 0 0 130 0 130 70 0 c66 0 70 -1 70 -23z m112 -24 c4 -62 25 -63 48 -3 14 36 23 46 44 48 31 4 32 -3 7 -61 -18 -41 -18 -46 -3 -61 10 -10 17 -33 17 -57 0 -58 -29 -79 -106 -79 l-59 0 0 130 0 130 24 0 c23 0 25 -5 28 -47z m319 29 c46 -38 22 -108 -48 -137 -22 -10 -33 -21 -33 -35 0 -31 30 -38 48 -12 20 31 52 29 52 -3 0 -57 -105 -75 -143 -24 -28 38 -13 76 44 109 27 16 45 35 47 48 5 32 -27 41 -49 14 -20 -25 -59 -30 -59 -7 0 9 11 27 25 40 29 30 83 33 116 7z m-1547 -91 c10 -16 -5 -41 -24 -41 -19 0 -34 25 -24 41 3 5 14 9 24 9 10 0 21 -4 24 -9z m1690 0 c10 -16 -5 -41 -24 -41 -19 0 -34 25 -24 41 3 5 14 9 24 9 10 0 21 -4 24 -9z m-5072 -506 c35 -8 94 -24 133 -35 38 -11 91 -20 118 -20 41 0 49 3 59 25 24 54 128 21 141 -45 6 -26 17 -35 79 -64 41 -19 103 -39 138 -45 36 -7 84 -19 108 -27 33 -12 46 -13 57 -4 11 9 20 7 42 -9 15 -11 69 -33 118 -50 167 -55 297 -117 335 -159 19 -21 49 -46 66 -55 58 -30 116 -109 167 -224 27 -60 51 -128 54 -150 8 -61 -19 -128 -86 -212 -66 -83 -74 -86 -236 -111 -44 -7 -84 -17 -89 -21 -6 -6 -5 -9 3 -9 7 0 9 -4 6 -10 -3 -5 0 -10 7 -10 10 0 10 -2 0 -8 -8 -6 2 -15 33 -31 66 -33 213 -132 266 -179 31 -28 63 -73 95 -134 49 -92 49 -94 49 -188 0 -78 -4 -102 -22 -135 -47 -88 -107 -118 -238 -117 -149 1 -338 30 -540 82 -104 27 -218 54 -252 61 -35 6 -71 20 -84 32 -54 51 -83 187 -59 286 l12 51 82 0 c108 0 121 9 113 80 -4 29 -28 116 -55 194 -54 157 -42 144 -153 161 -46 7 -59 34 -59 126 0 81 9 103 50 124 35 18 35 12 -12 175 -53 186 -61 192 -227 200 -142 8 -157 16 -206 113 -37 72 -111 330 -100 348 8 12 13 12 87 -6z m1784 -386 c110 -19 234 -51 234 -59 0 -4 -35 1 -77 11 -43 10 -96 18 -118 19 -73 0 -17 -29 114 -61 68 -16 135 -36 149 -44 38 -22 161 -54 168 -44 3 5 20 9 37 9 l32 1 -25 14 c-14 8 -33 14 -43 15 -22 0 -119 41 -113 47 2 2 41 -6 87 -17 59 -15 99 -20 134 -16 61 7 80 -3 81 -46 1 -18 9 -53 19 -78 21 -58 23 -116 5 -157 -16 -36 -39 -41 -114 -24 -95 23 -110 -20 -67 -193 39 -153 64 -295 96 -536 48 -359 46 -355 202 -405 l98 -32 3 -37 c2 -21 -2 -44 -9 -52 -6 -8 -13 -33 -15 -56 -6 -67 -29 -83 -122 -83 -71 1 -90 6 -247 68 -216 85 -233 94 -250 131 -8 17 -22 41 -31 54 -15 20 -15 22 0 22 25 0 19 16 -14 40 -29 21 -36 42 -24 74 5 13 22 16 79 16 101 0 110 10 100 110 -4 41 -11 125 -15 185 -10 146 -45 326 -74 391 -13 28 -29 85 -36 125 -30 184 -42 242 -53 261 -7 11 -61 43 -122 73 -138 66 -159 83 -195 156 -36 70 -37 93 -8 113 26 19 53 20 134 5z m1355 -39 c30 -6 83 -24 119 -41 36 -17 88 -34 117 -39 104 -17 259 -144 309 -253 42 -94 58 -178 46 -242 -32 -160 -170 -310 -371 -404 -168 -78 -298 -167 -326 -222 -41 -79 -5 -123 146 -176 l104 -36 195 -1 c107 0 220 2 250 5 50 4 61 1 107 -29 43 -28 59 -46 88 -104 19 -39 35 -85 35 -102 0 -17 7 -58 14 -91 26 -111 28 -150 9 -167 -32 -28 -95 -38 -253 -38 -238 0 -383 31 -561 121 -197 98 -344 246 -419 419 -35 82 -35 189 1 250 73 123 162 189 423 314 194 94 292 152 322 193 37 50 65 113 59 133 -24 76 -369 270 -480 270 -50 0 -65 -21 -65 -91 0 -51 6 -71 49 -153 63 -122 60 -153 -14 -147 -22 2 -32 13 -109 117 -106 144 -163 295 -142 378 25 101 190 166 347 136z m1308 -166 c119 -11 115 -9 160 -79 74 -114 79 -129 195 -543 32 -113 33 -160 5 -196 -25 -31 -63 -34 -147 -10 -142 41 -186 90 -151 168 24 52 -27 277 -77 344 -63 83 -115 10 -164 -226 -19 -93 -19 -116 -10 -340 5 -135 16 -271 25 -311 26 -124 102 -343 140 -401 20 -30 40 -71 45 -91 12 -45 43 -85 80 -104 73 -38 77 -25 95 350 9 175 18 321 21 324 2 3 30 8 62 12 68 8 134 -4 173 -32 73 -52 108 -179 90 -328 -31 -249 -142 -461 -276 -527 -71 -34 -141 -30 -237 14 -61 29 -71 38 -121 114 -87 130 -183 295 -231 393 -37 75 -167 432 -166 454 1 3 8 -5 16 -19 l15 -25 -6 25 c-3 14 -19 81 -36 150 -76 316 -80 529 -13 677 13 28 24 56 24 61 0 16 105 107 146 127 25 12 65 18 126 20 48 1 92 5 96 9 4 4 20 5 36 2 17 -4 55 -9 85 -12z m1318 -154 c108 -53 135 -78 246 -222 144 -189 206 -422 227 -858 5 -113 15 -233 22 -268 28 -148 -47 -388 -156 -498 -92 -91 -131 -114 -196 -114 -66 0 -167 29 -222 62 -20 13 -66 51 -103 86 -45 42 -75 62 -92 62 -49 0 -92 30 -128 90 -54 90 -128 296 -199 561 -73 272 -86 340 -86 447 0 96 34 288 65 364 50 124 151 235 269 296 47 23 99 33 226 40 14 1 71 -20 127 -48z m792 -44 c6 -8 18 -54 26 -104 17 -106 55 -217 131 -385 31 -67 77 -171 104 -232 65 -147 202 -407 218 -413 18 -6 15 25 -18 219 -17 96 -33 215 -36 264 -6 83 -10 98 -59 195 -70 140 -71 144 -40 158 14 7 56 15 93 18 98 9 168 -19 218 -87 23 -32 39 -46 44 -39 15 23 79 -77 182 -285 58 -115 115 -235 127 -266 12 -31 35 -69 51 -84 16 -16 35 -44 41 -64 7 -20 18 -40 25 -46 7 -5 38 -50 67 -100 30 -49 61 -90 68 -90 11 0 13 19 11 93 -2 63 1 91 8 87 5 -3 10 -13 10 -21 0 -9 5 -12 11 -8 6 4 8 20 5 38 -3 17 -8 63 -11 101 -9 119 -26 219 -40 235 -16 19 -32 127 -46 315 -18 227 -20 206 27 231 36 19 47 21 87 11 41 -9 50 -16 81 -67 l35 -57 -1 -119 c0 -65 5 -161 12 -212 10 -76 10 -98 0 -117 -11 -21 -11 -31 5 -64 9 -22 15 -43 12 -48 -3 -4 -1 -28 5 -53 5 -25 12 -74 14 -110 6 -96 11 -132 23 -163 6 -16 11 -93 11 -176 0 -163 7 -213 46 -343 30 -98 26 -144 -14 -164 -13 -6 -35 -23 -50 -37 -37 -34 -65 -47 -101 -47 -52 0 -186 131 -276 270 -89 137 -174 276 -181 295 -21 57 -135 215 -156 215 -15 0 -8 -63 23 -194 22 -92 32 -158 33 -221 l1 -90 -80 -2 c-44 -2 -94 -4 -111 -5 -72 -4 -126 63 -326 402 -85 144 -137 183 -151 113 -3 -15 1 -82 10 -148 11 -84 12 -128 5 -145 -11 -29 -54 -55 -75 -47 -20 8 -67 208 -77 332 -15 177 -70 527 -100 640 -16 61 -35 158 -40 215 -13 122 -31 212 -59 293 l-20 58 22 9 c12 5 39 11 59 15 20 3 47 14 60 25 28 23 42 25 57 6z"/>
 <path d="M4944 7098 c10 -52 19 -53 31 0 6 28 4 32 -15 32 -20 0 -22 -4 -16 -32z"/>
 <path d="M5602 7053 c2 -30 8 -39 25 -41 14 -2 26 4 33 17 15 29 -3 61 -36 61 -23 0 -25 -3 -22 -37z"/>
 <path d="M1930 6326 c0 -2 7 -6 15 -10 8 -3 15 -1 15 4 0 6 -7 10 -15 10 -8 0 -15 -2 -15 -4z"/>
 <path d="M1581 6121 c-20 -13 -16 -58 13 -173 29 -112 47 -152 79 -173 33 -21 227 -81 322 -98 44 -9 136 -18 204 -21 145 -6 161 1 205 83 36 69 43 122 19 142 -10 9 -101 48 -203 87 -153 59 -221 79 -399 117 -240 51 -221 48 -240 36z"/>
 <path d="M2460 5784 c-6 -14 -10 -40 -10 -57 0 -30 1 -31 14 -11 20 28 32 94 17 94 -6 0 -16 -12 -21 -26z"/>
 <path d="M1747 5433 c-23 -23 8 -155 63 -268 56 -118 90 -151 175 -176 122 -35 289 -66 405 -75 66 -4 80 -2 115 18 23 14 41 32 43 44 10 68 -236 223 -631 400 -56 25 -106 50 -111 55 -12 10 -50 12 -59 2z"/>
 <path d="M2191 4635 c10 -10 241 -25 256 -17 10 6 -12 11 -63 15 -90 8 -199 9 -193 2z"/>
 <path d="M3430 4636 c16 -15 33 -20 65 -16 16 1 15 4 -10 15 -16 8 -39 14 -50 15 -17 0 -17 -2 -5 -14z"/>
 <path d="M6486 5699 c-37 -29 -40 -36 -112 -262 -67 -213 -74 -263 -57 -406 l6 -53 59 6 c33 4 70 11 82 16 12 4 37 5 55 1 32 -6 34 -9 73 -131 22 -69 51 -159 63 -200 12 -41 50 -132 83 -202 53 -111 66 -131 103 -154 57 -36 101 -36 139 1 48 46 53 79 48 321 -6 242 -24 360 -80 528 -73 219 -233 460 -352 530 -54 31 -75 32 -110 5z"/>
 <path d="M7950 5401 c0 -6 4 -13 10 -16 6 -3 7 1 4 9 -7 18 -14 21 -14 7z"/>
 <path d="M8281 4803 c1 -16 47 -108 48 -96 1 14 -36 103 -44 103 -3 0 -5 -3 -4 -7z"/>
 <path d="M8371 4617 c22 -39 39 -55 39 -38 0 6 -14 25 -30 43 l-31 33 22 -38z"/>
 <path d="M8505 4399 c12 -37 79 -151 83 -140 4 12 -66 148 -80 157 -6 4 -7 -2 -3 -17z"/>
 </g>
<g id="layer104" fill="#ffffff" stroke="none">
 <path d="M0 5210 l0 -5210 5210 0 5210 0 0 5210 0 5210 -5210 0 -5210 0 0 -5210z m6838 2850 l1621 -935 1 -442 0 -443 -45 0 -45 0 0 418 0 417 -1517 875 c-834 481 -1546 892 -1582 912 l-66 37 -1590 -919 -1590 -919 -22 37 c-12 20 -21 37 -19 39 11 11 3222 1862 3227 1860 3 -1 735 -423 1627 -937z m-2217 -902 l1 -73 22 70 c31 98 48 98 79 -2 l25 -78 1 78 c1 75 2 77 26 77 l25 0 0 -130 0 -130 -34 0 -33 0 -24 91 -23 91 -12 -35 c-7 -18 -18 -59 -25 -90 -12 -55 -13 -57 -46 -57 l-33 0 0 130 0 130 25 0 c24 0 25 -2 26 -72z m296 41 c10 -26 16 -30 44 -27 26 2 35 9 39 28 4 18 13 26 33 28 15 2 27 0 27 -5 0 -4 -17 -62 -38 -128 -34 -108 -40 -120 -63 -123 -23 -3 -26 4 -62 117 -20 66 -37 125 -37 131 0 5 10 10 23 10 16 0 26 -9 34 -31z m253 -6 c0 -67 15 -72 44 -15 21 42 31 52 51 52 33 0 32 -11 -10 -85 l-34 -62 34 -51 c19 -28 35 -54 35 -57 0 -3 -13 -5 -28 -5 -24 0 -33 8 -58 53 l-29 52 -3 -52 c-3 -49 -5 -53 -28 -53 l-24 0 0 130 0 130 25 0 c22 0 25 -4 25 -37z m320 14 c0 -21 -5 -23 -42 -23 -41 1 -43 0 -46 -31 -3 -32 -2 -33 37 -33 37 0 41 -2 41 -25 0 -22 -4 -25 -40 -25 -38 0 -40 -2 -40 -30 0 -29 2 -30 45 -30 38 0 45 -3 45 -20 0 -18 -7 -20 -70 -20 l-70 0 0 130 0 130 70 0 c66 0 70 -1 70 -23z m112 -24 c4 -62 25 -63 48 -3 14 36 23 46 44 48 31 4 32 -3 7 -61 -18 -41 -18 -46 -3 -61 10 -10 17 -33 17 -57 0 -58 -29 -79 -106 -79 l-59 0 0 130 0 130 24 0 c23 0 25 -5 28 -47z m319 29 c46 -38 22 -108 -48 -137 -22 -10 -33 -21 -33 -35 0 -31 30 -38 48 -12 20 31 52 29 52 -3 0 -57 -105 -75 -143 -24 -28 38 -13 76 44 109 27 16 45 35 47 48 5 32 -27 41 -49 14 -20 -25 -59 -30 -59 -7 0 9 11 27 25 40 29 30 83 33 116 7z m-1547 -91 c10 -16 -5 -41 -24 -41 -19 0 -34 25 -24 41 3 5 14 9 24 9 10 0 21 -4 24 -9z m1690 0 c10 -16 -5 -41 -24 -41 -19 0 -34 25 -24 41 3 5 14 9 24 9 10 0 21 -4 24 -9z m-5072 -506 c35 -8 94 -24 133 -35 38 -11 91 -20 118 -20 41 0 49 3 59 25 24 54 128 21 141 -45 6 -26 17 -35 79 -64 41 -19 103 -39 138 -45 36 -7 84 -19 108 -27 33 -12 46 -13 57 -4 11 9 20 7 42 -9 15 -11 69 -33 118 -50 167 -55 297 -117 335 -159 19 -21 49 -46 66 -55 58 -30 116 -109 167 -224 27 -60 51 -128 54 -150 8 -61 -19 -128 -86 -212 -66 -83 -74 -86 -236 -111 -44 -7 -84 -17 -89 -21 -6 -6 -5 -9 3 -9 7 0 9 -4 6 -10 -3 -5 0 -10 7 -10 10 0 10 -2 0 -8 -8 -6 2 -15 33 -31 66 -33 213 -132 266 -179 31 -28 63 -73 95 -134 49 -92 49 -94 49 -188 0 -78 -4 -102 -22 -135 -47 -88 -107 -118 -238 -117 -149 1 -338 30 -540 82 -104 27 -218 54 -252 61 -35 6 -71 20 -84 32 -54 51 -83 187 -59 286 l12 51 82 0 c108 0 121 9 113 80 -4 29 -28 116 -55 194 -54 157 -42 144 -153 161 -46 7 -59 34 -59 126 0 81 9 103 50 124 35 18 35 12 -12 175 -53 186 -61 192 -227 200 -142 8 -157 16 -206 113 -37 72 -111 330 -100 348 8 12 13 12 87 -6z m1784 -386 c110 -19 234 -51 234 -59 0 -4 -35 1 -77 11 -43 10 -96 18 -118 19 -73 0 -17 -29 114 -61 68 -16 135 -36 149 -44 38 -22 161 -54 168 -44 3 5 20 9 37 9 l32 1 -25 14 c-14 8 -33 14 -43 15 -22 0 -119 41 -113 47 2 2 41 -6 87 -17 59 -15 99 -20 134 -16 61 7 80 -3 81 -46 1 -18 9 -53 19 -78 21 -58 23 -116 5 -157 -16 -36 -39 -41 -114 -24 -95 23 -110 -20 -67 -193 39 -153 64 -295 96 -536 48 -359 46 -355 202 -405 l98 -32 3 -37 c2 -21 -2 -44 -9 -52 -6 -8 -13 -33 -15 -56 -6 -67 -29 -83 -122 -83 -71 1 -90 6 -247 68 -216 85 -233 94 -250 131 -8 17 -22 41 -31 54 -15 20 -15 22 0 22 25 0 19 16 -14 40 -29 21 -36 42 -24 74 5 13 22 16 79 16 101 0 110 10 100 110 -4 41 -11 125 -15 185 -10 146 -45 326 -74 391 -13 28 -29 85 -36 125 -30 184 -42 242 -53 261 -7 11 -61 43 -122 73 -138 66 -159 83 -195 156 -36 70 -37 93 -8 113 26 19 53 20 134 5z m1355 -39 c30 -6 83 -24 119 -41 36 -17 88 -34 117 -39 104 -17 259 -144 309 -253 42 -94 58 -178 46 -242 -32 -160 -170 -310 -371 -404 -168 -78 -298 -167 -326 -222 -41 -79 -5 -123 146 -176 l104 -36 195 -1 c107 0 220 2 250 5 50 4 61 1 107 -29 43 -28 59 -46 88 -104 19 -39 35 -85 35 -102 0 -17 7 -58 14 -91 26 -111 28 -150 9 -167 -32 -28 -95 -38 -253 -38 -238 0 -383 31 -561 121 -197 98 -344 246 -419 419 -35 82 -35 189 1 250 73 123 162 189 423 314 194 94 292 152 322 193 37 50 65 113 59 133 -24 76 -369 270 -480 270 -50 0 -65 -21 -65 -91 0 -51 6 -71 49 -153 63 -122 60 -153 -14 -147 -22 2 -32 13 -109 117 -106 144 -163 295 -142 378 25 101 190 166 347 136z m1308 -166 c119 -11 115 -9 160 -79 74 -114 79 -129 195 -543 32 -113 33 -160 5 -196 -25 -31 -63 -34 -147 -10 -142 41 -186 90 -151 168 24 52 -27 277 -77 344 -63 83 -115 10 -164 -226 -19 -93 -19 -116 -10 -340 5 -135 16 -271 25 -311 26 -124 102 -343 140 -401 20 -30 40 -71 45 -91 12 -45 43 -85 80 -104 73 -38 77 -25 95 350 9 175 18 321 21 324 2 3 30 8 62 12 68 8 134 -4 173 -32 73 -52 108 -179 90 -328 -31 -249 -142 -461 -276 -527 -71 -34 -141 -30 -237 14 -61 29 -71 38 -121 114 -87 130 -183 295 -231 393 -37 75 -167 432 -166 454 1 3 8 -5 16 -19 l15 -25 -6 25 c-3 14 -19 81 -36 150 -76 316 -80 529 -13 677 13 28 24 56 24 61 0 16 105 107 146 127 25 12 65 18 126 20 48 1 92 5 96 9 4 4 20 5 36 2 17 -4 55 -9 85 -12z m1318 -154 c108 -53 135 -78 246 -222 144 -189 206 -422 227 -858 5 -113 15 -233 22 -268 28 -148 -47 -388 -156 -498 -92 -91 -131 -114 -196 -114 -66 0 -167 29 -222 62 -20 13 -66 51 -103 86 -45 42 -75 62 -92 62 -49 0 -92 30 -128 90 -54 90 -128 296 -199 561 -73 272 -86 340 -86 447 0 96 34 288 65 364 50 124 151 235 269 296 47 23 99 33 226 40 14 1 71 -20 127 -48z m792 -44 c6 -8 18 -54 26 -104 17 -106 55 -217 131 -385 31 -67 77 -171 104 -232 65 -147 202 -407 218 -413 18 -6 15 25 -18 219 -17 96 -33 215 -36 264 -6 83 -10 98 -59 195 -70 140 -71 144 -40 158 14 7 56 15 93 18 98 9 168 -19 218 -87 23 -32 39 -46 44 -39 15 23 79 -77 182 -285 58 -115 115 -235 127 -266 12 -31 35 -69 51 -84 16 -16 35 -44 41 -64 7 -20 18 -40 25 -46 7 -5 38 -50 67 -100 30 -49 61 -90 68 -90 11 0 13 19 11 93 -2 63 1 91 8 87 5 -3 10 -13 10 -21 0 -9 5 -12 11 -8 6 4 8 20 5 38 -3 17 -8 63 -11 101 -9 119 -26 219 -40 235 -16 19 -32 127 -46 315 -18 227 -20 206 27 231 36 19 47 21 87 11 41 -9 50 -16 81 -67 l35 -57 -1 -119 c0 -65 5 -161 12 -212 10 -76 10 -98 0 -117 -11 -21 -11 -31 5 -64 9 -22 15 -43 12 -48 -3 -4 -1 -28 5 -53 5 -25 12 -74 14 -110 6 -96 11 -132 23 -163 6 -16 11 -93 11 -176 0 -163 7 -213 46 -343 30 -98 26 -144 -14 -164 -13 -6 -35 -23 -50 -37 -37 -34 -65 -47 -101 -47 -52 0 -186 131 -276 270 -89 137 -174 276 -181 295 -21 57 -135 215 -156 215 -15 0 -8 -63 23 -194 22 -92 32 -158 33 -221 l1 -90 -80 -2 c-44 -2 -94 -4 -111 -5 -72 -4 -126 63 -326 402 -85 144 -137 183 -151 113 -3 -15 1 -82 10 -148 11 -84 12 -128 5 -145 -11 -29 -54 -55 -75 -47 -20 8 -67 208 -77 332 -15 177 -70 527 -100 640 -16 61 -35 158 -40 215 -13 122 -31 212 -59 293 l-20 58 22 9 c12 5 39 11 59 15 20 3 47 14 60 25 28 23 42 25 57 6z m-5499 -2009 l0 -394 1548 -893 c851 -492 1561 -902 1578 -912 l30 -18 1594 920 1594 919 18 -31 c11 -17 17 -36 15 -42 -3 -8 -3177 -1847 -3216 -1863 -3 -2 -735 418 -1626 931 l-1620 935 -3 420 -2 421 45 0 45 0 0 -393z"/>
 <path d="M4944 7098 c10 -52 19 -53 31 0 6 28 4 32 -15 32 -20 0 -22 -4 -16 -32z"/>
 <path d="M5602 7053 c2 -30 8 -39 25 -41 14 -2 26 4 33 17 15 29 -3 61 -36 61 -23 0 -25 -3 -22 -37z"/>
 <path d="M1930 6326 c0 -2 7 -6 15 -10 8 -3 15 -1 15 4 0 6 -7 10 -15 10 -8 0 -15 -2 -15 -4z"/>
 <path d="M1581 6121 c-20 -13 -16 -58 13 -173 29 -112 47 -152 79 -173 33 -21 227 -81 322 -98 44 -9 136 -18 204 -21 145 -6 161 1 205 83 36 69 43 122 19 142 -10 9 -101 48 -203 87 -153 59 -221 79 -399 117 -240 51 -221 48 -240 36z"/>
 <path d="M2460 5784 c-6 -14 -10 -40 -10 -57 0 -30 1 -31 14 -11 20 28 32 94 17 94 -6 0 -16 -12 -21 -26z"/>
 <path d="M1747 5433 c-23 -23 8 -155 63 -268 56 -118 90 -151 175 -176 122 -35 289 -66 405 -75 66 -4 80 -2 115 18 23 14 41 32 43 44 10 68 -236 223 -631 400 -56 25 -106 50 -111 55 -12 10 -50 12 -59 2z"/>
 <path d="M2191 4635 c10 -10 241 -25 256 -17 10 6 -12 11 -63 15 -90 8 -199 9 -193 2z"/>
 <path d="M3430 4636 c16 -15 33 -20 65 -16 16 1 15 4 -10 15 -16 8 -39 14 -50 15 -17 0 -17 -2 -5 -14z"/>
 <path d="M6486 5699 c-37 -29 -40 -36 -112 -262 -67 -213 -74 -263 -57 -406 l6 -53 59 6 c33 4 70 11 82 16 12 4 37 5 55 1 32 -6 34 -9 73 -131 22 -69 51 -159 63 -200 12 -41 50 -132 83 -202 53 -111 66 -131 103 -154 57 -36 101 -36 139 1 48 46 53 79 48 321 -6 242 -24 360 -80 528 -73 219 -233 460 -352 530 -54 31 -75 32 -110 5z"/>
 <path d="M7950 5401 c0 -6 4 -13 10 -16 6 -3 7 1 4 9 -7 18 -14 21 -14 7z"/>
 <path d="M8281 4803 c1 -16 47 -108 48 -96 1 14 -36 103 -44 103 -3 0 -5 -3 -4 -7z"/>
 <path d="M8371 4617 c22 -39 39 -55 39 -38 0 6 -14 25 -30 43 l-31 33 22 -38z"/>
 <path d="M8505 4399 c12 -37 79 -151 83 -140 4 12 -66 148 -80 157 -6 4 -7 -2 -3 -17z"/>
 </g>

</svg>
